<svg xmlns="http://www.w3.org/2000/svg" viewBox="0 0 800 250">
  <path d="M10,120 L30,115 L80,108 L120,100 L160,95 L200,92 L240,88 L280,85 L300,83 L320,80 L340,78 L360,76 L380,75 L400,74 L420,73 L450,72 L480,72 L500,73 L520,75 L540,77 L560,80 L580,83 L600,86 L620,90 L640,94 L660,98 L680,102 L700,107 L720,112 L740,118 L760,124 L770,128 L770,140 L760,145 L740,150 L720,155 L700,158 L680,160 L660,162 L640,163 L620,164 L600,165 L580,166 L560,167 L540,168 L520,168 L500,168 L480,168 L460,168 L440,167 L420,166 L400,165 L380,164 L360,162 L340,160 L320,158 L300,155 L280,152 L260,148 L240,144 L220,140 L200,136 L180,132 L160,128 L140,125 L120,122 L100,120 L80,119 L60,120 L40,121 L20,121 Z" fill="currentColor" stroke="none"/>
</svg>
